<?xml version="1.0" standalone="no"?>
<!DOCTYPE svg PUBLIC "-//W3C//DTD SVG 20010904//EN"
 "http://www.w3.org/TR/2001/REC-SVG-20010904/DTD/svg10.dtd">
<svg version="1.0" xmlns="http://www.w3.org/2000/svg"
 width="648.000000pt" height="648.000000pt" viewBox="0 0 648.000000 648.000000"
 preserveAspectRatio="xMidYMid meet">
<metadata>
Created by potrace 1.11, written by Peter Selinger 2001-2013
</metadata>
<g transform="translate(0.000000,648.000000) scale(0.100000,-0.100000)"
fill="#000000" stroke="none">
<path d="M3925 6467 c-215 -49 -385 -164 -490 -331 -60 -94 -57 -76 -80 -436
-17 -276 -26 -411 -31 -480 -2 -36 -7 -103 -10 -150 -2 -47 -7 -107 -9 -135
-2 -27 -7 -97 -10 -155 -4 -58 -8 -127 -10 -155 -6 -83 -18 -288 -18 -312 -1
-39 -13 -13 -56 127 -24 74 -51 160 -61 190 -10 30 -32 100 -50 155 -17 55
-34 107 -37 115 -3 8 -7 20 -8 25 -2 6 -22 71 -46 145 -24 74 -44 137 -44 140
-1 3 -19 59 -40 125 -21 66 -39 122 -40 125 -2 10 -66 215 -72 230 -3 8 -7 20
-9 25 -19 75 -108 327 -121 343 -10 12 -31 39 -48 60 -79 101 -225 182 -360
199 -83 10 -150 7 -240 -11 -50 -10 -157 -51 -230 -89 -231 -119 -402 -283
-487 -467 -46 -100 -58 -150 -65 -275 -5 -98 5 -172 39 -280 20 -65 29 -77
118 -165 53 -52 151 -147 219 -210 68 -63 144 -135 170 -159 25 -24 78 -73
116 -109 39 -36 138 -129 220 -208 83 -78 166 -156 185 -174 118 -109 187
-179 140 -144 -8 7 -31 16 -50 22 -19 6 -80 27 -135 47 -55 21 -118 43 -140
50 -22 7 -83 28 -135 48 -52 19 -135 49 -185 67 -49 17 -99 35 -110 40 -11 5
-40 16 -65 24 -25 8 -160 56 -300 106 -359 129 -331 121 -430 122 -296 1 -529
-214 -599 -552 -6 -30 -14 -66 -17 -80 -14 -58 -13 -326 2 -395 48 -231 161
-408 323 -510 9 -5 18 -12 21 -15 5 -5 79 -41 125 -61 69 -30 143 -39 220 -25
17 3 75 12 130 21 107 17 109 17 200 34 33 6 77 13 98 16 68 9 102 15 127 20
14 3 41 8 60 10 35 4 78 11 116 20 11 2 40 7 65 10 24 3 55 7 69 10 14 3 41 8
60 11 19 3 46 7 60 10 14 2 41 7 60 10 19 2 46 7 60 10 32 6 65 11 115 19 22
3 78 12 125 20 47 8 99 16 115 19 17 2 32 5 35 6 3 1 8 2 12 1 4 0 42 6 85 14
43 8 98 17 122 20 23 3 46 7 50 9 3 2 29 6 56 10 28 3 64 9 80 12 39 8 72 13
112 18 l33 4 -48 -43 c-145 -131 -290 -293 -399 -445 -60 -85 -67 -95 -126
-195 -20 -33 -40 -65 -44 -70 -15 -19 -92 -180 -129 -270 -34 -85 -86 -246
-99 -308 -3 -15 -7 -37 -10 -50 -3 -12 -7 -33 -10 -47 -25 -115 -24 -413 0
-505 5 -16 9 -41 11 -55 1 -14 3 -26 4 -27 1 -2 4 -7 5 -13 1 -5 3 -11 5 -12
1 -2 3 -10 5 -18 21 -100 125 -299 205 -395 222 -265 528 -450 969 -586 94
-29 302 -81 376 -95 22 -3 49 -8 60 -10 137 -26 278 -47 313 -48 12 0 22 -2
22 -5 0 -4 15 -6 33 -6 17 -1 64 -4 102 -9 39 -4 97 -10 130 -12 33 -3 83 -7
110 -10 28 -2 222 -6 432 -8 281 -3 385 -1 397 7 17 14 156 241 156 256 0 6 4
11 9 11 5 0 13 10 17 23 4 12 10 24 13 27 9 6 250 488 275 550 21 50 50 117
73 170 20 44 143 380 148 400 2 9 14 54 28 100 37 124 61 218 73 290 3 19 8
38 9 41 5 7 32 180 42 264 16 142 9 449 -12 550 -4 17 -8 39 -10 50 -13 92
-54 211 -116 340 -128 268 -326 475 -579 606 -68 35 -235 99 -259 99 -10 0
-21 3 -25 7 -3 4 -12 8 -19 9 -7 1 -48 9 -93 17 -45 9 -114 19 -155 23 -158
16 -453 5 -575 -21 -12 -3 -39 -7 -60 -11 -21 -3 -77 -15 -124 -26 -47 -11
-89 -21 -94 -22 -4 0 -78 -24 -165 -52 -86 -29 -157 -51 -158 -50 -1 1 8 18
21 37 24 34 43 63 236 364 133 209 193 302 296 459 46 71 84 132 84 134 0 3
11 20 25 38 14 18 25 35 25 37 0 3 61 99 100 157 6 8 26 40 45 70 19 30 38 60
43 65 5 6 21 33 37 60 16 28 32 52 35 55 3 3 53 79 110 170 58 91 108 167 112
168 5 2 8 9 8 15 0 6 6 18 14 26 8 9 26 54 39 100 19 65 23 101 21 170 -3 87
-5 102 -22 156 -74 231 -293 404 -627 496 -44 12 -93 24 -110 26 -64 9 -272 9
-310 0z m300 -327 c225 -50 403 -168 438 -288 12 -40 13 -57 8 -127 -1 -20
-55 -109 -231 -380 -52 -81 -100 -156 -107 -168 -7 -12 -17 -29 -23 -37 -6 -8
-34 -51 -62 -95 -28 -44 -70 -109 -93 -145 -23 -36 -76 -119 -118 -185 -42
-66 -80 -124 -84 -130 -23 -29 -153 -238 -153 -245 0 -5 -3 -10 -8 -12 -4 -1
-32 -41 -62 -88 -101 -159 -161 -250 -165 -250 -2 0 -2 10 0 23 2 12 6 69 10
126 3 57 8 129 10 160 3 31 7 97 10 146 3 50 7 122 10 160 6 91 14 210 20 310
3 44 7 114 10 155 6 75 9 125 20 295 3 50 8 122 11 160 3 39 7 102 9 140 17
302 16 300 96 377 55 52 119 86 194 103 58 14 189 12 260 -5z m-1922 -159 c13
-5 42 -27 65 -48 38 -35 46 -53 92 -193 28 -85 52 -162 54 -170 2 -8 6 -23 10
-32 4 -9 9 -22 10 -30 1 -7 24 -80 51 -163 27 -82 50 -152 50 -155 0 -3 8 -27
17 -55 39 -117 110 -341 113 -355 2 -8 17 -55 33 -105 16 -49 58 -178 92 -285
34 -107 79 -249 100 -315 21 -66 37 -121 35 -123 -2 -2 -43 34 -91 79 -92 88
-184 176 -270 256 -91 85 -316 297 -354 333 -20 19 -96 91 -170 160 -73 69
-154 145 -181 170 -112 106 -287 270 -321 302 -45 41 -58 74 -65 161 -13 165
72 313 254 443 140 101 300 158 398 142 30 -4 65 -12 78 -17z m-1343 -1755 c8
-3 33 -12 55 -20 22 -8 92 -33 155 -56 63 -23 120 -43 125 -44 10 -3 22 -7 90
-33 22 -9 51 -19 65 -23 14 -5 77 -27 140 -50 63 -23 151 -54 195 -70 44 -15
118 -42 165 -59 47 -18 105 -39 130 -47 49 -17 408 -145 480 -172 25 -9 47
-17 50 -18 3 0 17 -6 33 -12 15 -6 62 -23 105 -37 81 -28 110 -44 76 -46 -10
0 -26 -2 -34 -4 -38 -8 -88 -16 -122 -20 -21 -2 -75 -11 -120 -19 -46 -9 -101
-18 -123 -21 -23 -3 -52 -7 -65 -10 -13 -3 -42 -8 -65 -11 -72 -12 -90 -14
-110 -18 -11 -2 -42 -7 -70 -11 -27 -4 -68 -10 -90 -15 -22 -5 -65 -12 -95
-15 -30 -4 -58 -9 -61 -10 -3 -2 -28 -7 -55 -11 -47 -6 -59 -8 -114 -18 -14
-3 -43 -8 -65 -11 -40 -5 -561 -92 -600 -99 -98 -19 -135 -17 -191 10 -113 53
-200 170 -228 306 -18 86 -14 284 9 373 17 67 57 166 79 193 46 55 106 93 161
100 17 2 31 5 32 6 4 4 48 -1 63 -8z m3945 -700 c121 -15 160 -25 149 -36 -5
-4 -25 -17 -44 -28 -19 -10 -192 -108 -385 -217 -192 -108 -374 -211 -404
-227 -29 -17 -76 -43 -103 -59 -27 -16 -51 -29 -54 -29 -3 0 -29 -15 -57 -34
-82 -55 -109 -119 -81 -198 22 -63 86 -108 152 -108 27 0 140 49 172 75 8 7
47 29 85 50 82 44 295 164 345 194 19 11 42 24 50 28 8 4 37 19 63 35 27 15
76 43 110 62 34 18 91 50 125 70 35 20 68 36 73 36 5 0 9 4 9 9 0 5 10 13 23
18 12 4 84 43 159 86 75 42 141 77 147 77 30 0 163 -133 233 -232 35 -49 63
-92 64 -96 0 -4 18 -42 38 -86 39 -82 79 -221 92 -322 10 -74 11 -316 1 -409
-17 -168 -22 -189 -55 -202 -15 -6 -76 -39 -137 -72 -60 -34 -139 -76 -175
-93 -36 -18 -67 -35 -70 -39 -3 -3 -30 -18 -60 -34 -30 -16 -77 -41 -105 -56
-27 -15 -79 -42 -115 -60 -36 -19 -66 -37 -68 -41 -2 -5 -8 -8 -13 -8 -5 0
-53 -24 -106 -54 -54 -29 -136 -74 -183 -99 -225 -119 -241 -130 -263 -173
-32 -63 -22 -140 25 -187 37 -38 139 -63 162 -40 3 4 12 8 19 9 11 2 128 64
267 141 30 17 87 47 125 67 39 20 77 41 85 46 8 5 65 36 125 68 143 77 255
137 332 179 73 40 86 42 73 11 -5 -13 -34 -90 -63 -173 -30 -82 -80 -211 -112
-285 -91 -216 -310 -646 -377 -742 l-19 -27 -287 5 c-158 2 -305 6 -327 8 -22
2 -78 7 -125 10 -119 10 -296 32 -485 61 -19 3 -39 7 -91 19 -12 2 -39 7 -60
10 -22 4 -57 11 -79 17 -38 11 -48 13 -94 23 -192 43 -532 176 -636 250 -16
11 -32 21 -36 21 -12 0 -158 111 -164 125 -3 8 -3 11 1 7 4 -3 19 2 33 12 14
10 55 33 91 52 36 19 67 37 70 40 3 3 34 22 70 41 115 63 195 108 210 118 36
22 206 115 218 118 6 2 12 8 12 13 0 5 5 9 11 9 6 0 44 20 84 44 40 25 76 42
79 39 3 -4 6 -1 6 5 0 7 4 12 8 12 10 0 146 77 177 100 82 60 88 180 13 246
-74 65 -120 57 -319 -55 -90 -51 -171 -96 -179 -101 -8 -5 -73 -42 -145 -82
-71 -40 -133 -76 -136 -81 -3 -5 -9 -8 -13 -7 -4 1 -22 -8 -42 -19 -19 -11
-35 -20 -37 -18 -1 1 -15 -8 -32 -19 -16 -12 -52 -33 -80 -48 -27 -15 -63 -35
-80 -44 -16 -10 -55 -32 -85 -49 -30 -17 -76 -43 -102 -57 l-46 -27 -8 23 c-3
13 -15 41 -25 63 -21 46 -48 148 -57 214 -12 90 -6 274 12 361 3 14 8 39 12
55 11 54 66 230 75 240 5 5 9 16 9 25 0 24 125 264 186 358 63 96 142 205 199
272 76 90 275 279 356 338 46 34 89 66 96 72 7 5 15 10 19 10 3 0 18 9 33 19
33 24 266 141 346 174 146 60 395 135 505 151 14 2 36 7 50 10 28 7 71 13 175
22 39 3 71 7 72 8 5 4 241 -2 288 -8z"/>
</g>
</svg>
