<svg id="Layer_1" data-name="Layer 1" xmlns="http://www.w3.org/2000/svg" viewBox="0 0 73.88 80.85">
    <defs>
        <style>.cls-1,.cls-2{fill:none;stroke:#ffffff;stroke-width:5px;}.cls-2{stroke-linecap:round;stroke-linejoin:round;}</style>
    </defs>
    <title>beetflo_logo</title>
    <path id="body" class="cls-1" d="M118.75,126.75s-23.84,1.41-33.11-8S86.05,93.12,95.5,87.5c9.67-5.75,26.25-8.5,31.75,4.5S118.75,126.75,118.75,126.75Z" transform="translate(-56.65 -47.97)" />
    <path id="ear_right" class="cls-2" d="M95.13,86.75l18-28s2.57-5.5-5.43-8.12-10.43,3.5-10.43,3.5Z" transform="translate(-56.65 -47.97)" />
    <path id="ear_middle" class="cls-2" d="M95.26,86.42L85.15,54.68s-2.6-5.49-9.73-1-4,10.3-4,10.3Z" transform="translate(-56.65 -47.97)" />
    <path id="ear_left" class="cls-2" d="M96.75,85.3L65.38,74.06s-5.94-1.27-6.68,7.14,5.78,9.39,5.78,9.39Z" transform="translate(-56.65 -47.97)" />
    <line id="stripe_3" class="cls-2" x1="54.6" y1="66.15" x2="70.1" y2="57.79" />
    <line id="stripe_2" class="cls-2" x1="27.89" y1="69.51" x2="43.35" y2="60.78" />
    <line id="stripe_1" class="cls-2" x1="47.35" y1="46.53" x2="64.45" y2="36.9" />
</svg>